<?xml version="1.0" encoding="UTF-8" standalone="no"?>
<!-- Created with Inkscape (http://www.inkscape.org/) -->

<svg
   xmlns:dc="http://purl.org/dc/elements/1.1/"
   xmlns:cc="http://creativecommons.org/ns#"
   xmlns:rdf="http://www.w3.org/1999/02/22-rdf-syntax-ns#"
   xmlns:svg="http://www.w3.org/2000/svg"
   xmlns="http://www.w3.org/2000/svg"
   xmlns:sodipodi="http://sodipodi.sourceforge.net/DTD/sodipodi-0.dtd"
   xmlns:inkscape="http://www.inkscape.org/namespaces/inkscape"
   width="256"
   height="256"
   viewBox="0 0 67.733334 67.733335"
   version="1.1"
   id="svg1393"
   inkscape:version="0.92.4 (5da689c313, 2019-01-14)"
   sodipodi:docname="logo.svg"
   inkscape:export-filename="E:\saturn\loader\assets\dessin.png"
   inkscape:export-xdpi="96"
   inkscape:export-ydpi="96">
  <defs
     id="defs1387" />
  <sodipodi:namedview
     id="base"
     pagecolor="#ffffff"
     bordercolor="#666666"
     borderopacity="1.0"
     inkscape:pageopacity="0"
     inkscape:pageshadow="2"
     inkscape:zoom="2.8"
     inkscape:cx="24.402189"
     inkscape:cy="126.58955"
     inkscape:document-units="mm"
     inkscape:current-layer="layer1"
     showgrid="false"
     inkscape:window-width="1920"
     inkscape:window-height="1017"
     inkscape:window-x="1912"
     inkscape:window-y="-8"
     inkscape:window-maximized="1"
     fit-margin-top="16"
     fit-margin-left="16"
     fit-margin-right="16"
     fit-margin-bottom="16"
     units="px" />
  <metadata
     id="metadata1390">
    <rdf:RDF>
      <cc:Work
         rdf:about="">
        <dc:format>image/svg+xml</dc:format>
        <dc:type
           rdf:resource="http://purl.org/dc/dcmitype/StillImage" />
        <dc:title></dc:title>
      </cc:Work>
    </rdf:RDF>
  </metadata>
  <g
     inkscape:label="Calque 1"
     inkscape:groupmode="layer"
     id="layer1"
     transform="translate(41.298916,-90.095841)">
    <path
       style="fill:#007af6;fill-opacity:1;stroke:none;stroke-width:0.33123776;stroke-linecap:butt;stroke-linejoin:miter;stroke-miterlimit:4;stroke-dasharray:none;stroke-opacity:1"
       d="m -15.407572,97.504455 c -11.548599,3.468385 -19.443868,13.961255 -19.455796,25.856915 -8.9e-5,14.94454 12.295704,27.05958 27.4633274,27.05947 14.6547849,-0.0167 26.7133936,-11.37004 27.3989096,-25.79353 -1.187554,5.93461 -4.538073,11.23588 -9.419606,14.90404 0.89196,-2.60533 1.131843,-5.89888 2.177748,-9.67393 l 2.733963,1.14227 c 0.804765,-4.59121 0.418166,-7.5721 -1.331093,-10.9201 0.71401,-0.71977 2.64953,-0.55966 3.586879,0.51 -0.886049,-3.67533 -3.683279,-4.98927 -5.816526,-7.30149 l 3.869217,0.77528 c -2.492864,-2.93111 -5.9999482,-4.352 -9.3043892,-5.14883 -0.025556,-1.52311 0.8273047,-3.90283 1.8089037,-5.42599 -2.2293977,1.61249 -4.1928401,3.30849 -7.90114736,3.9031 l 0.76162706,-2.85577 c 0,0 -2.9632414,3.41538 -4.7596839,4.75966 -2.746686,2.05533 -9.0345633,4.92866 -9.0345633,4.92866 0,0 -0.217278,1.53394 -0.675122,2.11555 -0.585094,0.74323 -9.329046,3.99806 -9.329046,3.99806 0,0 2.403648,3.81388 3.617435,4.18866 0.691739,0.33555 11.0422344,-1.7135 11.0422404,-1.7135 0,0 4.4998058,7.4256 -10.6616184,10.85193 -1.445565,0.32667 -4.070901,0.59684 -6.31421,0.78484 -3.143341,-4.23128 -4.842756,-9.33622 -4.85355,-14.57982 0.01111,-9.56927 5.615499,-18.27637 14.396101,-22.365755 z m 10.5272569,15.360925 c 0,0 -0.1475554,2.48827 -0.5713106,3.04611 -0.3691107,0.48611 -5.0214123,0.095 -5.0214123,0.095 1.5828994,-1.19861 3.2012754,-2.37822 5.5927229,-3.14144 z m -13.7198869,6.92527 c -0.73581,1.0265 -1.083154,1.62339 -1.427904,2.37989 -0.409055,-0.46778 -0.732305,-0.98178 -0.975499,-1.42795 z"
       id="path3713"
       inkscape:connector-curvature="0"
       inkscape:export-xdpi="96"
       inkscape:export-ydpi="96" />
  </g>
</svg>
